# xmcd CD database file
#
# Track frame offsets:
#	150
#	12286
#	27082
#	40970
#	54278
#	82986
#	101803
#	114674
#	128783
#	142283
#	154990
#	169427
#	184620
#	198853
#	213825
#
# Disc length: 3081 seconds
#
# Revision: 0
# Processed by: cddbd v1.5.1PL2 Copyright (c) Steve Scherf et al.
# Submitted via: CDex 1.51
#
DISCID=cd0c070f
DTITLE=Billy Holiday - Legends [CD2]
DYEAR=1900
DGENRE=Jazz
TTITLE0=Billie's Blues
TTITLE1=Back In Your Own Backyard
TTITLE2=Easy Living
TTITLE3=God Bless The Child
TTITLE4=Fine and Mellow
TTITLE5=Glad To Be Unhappy
TTITLE6=A Sailboat In The Moonlight
TTITLE7=Carelessly
TTITLE8=Body and Soul
TTITLE9=I Can't Get Started
TTITLE10=If You Were Mine
TTITLE11=It's Like Reaching For The Moon
TTITLE12=I'll Get By (As Long As I)
TTITLE13=You've Changed
TTITLE14=You Don't Know What Love Is
EXTD=
EXTT0=
EXTT1=
EXTT2=
EXTT3=
EXTT4=
EXTT5=
EXTT6=
EXTT7=
EXTT8=
EXTT9=
EXTT10=
EXTT11=
EXTT12=
EXTT13=
EXTT14=
PLAYORDER=
